<svg xmlns="http://www.w3.org/2000/svg" version="1.1" xmlns:xlink="http://www.w3.org/1999/xlink" xmlns:svgjs="http://svgjs.dev/svgjs" viewBox="0 0 1422 800"><g stroke-width="1" stroke="hsl(219, 100%, 50%)" fill="none" stroke-linecap="round"><path d="M 0 782 Q 355.5 400 711 400 Q 1066.5 400 1422 782"></path><path d="M 0 736 Q 355.5 400 711 400 Q 1066.5 400 1422 736"></path><path d="M 0 690 Q 355.5 400 711 400 Q 1066.5 400 1422 690"></path><path d="M 0 644 Q 355.5 400 711 400 Q 1066.5 400 1422 644"></path><path d="M 0 598 Q 355.5 400 711 400 Q 1066.5 400 1422 598"></path><path d="M 0 552 Q 355.5 400 711 400 Q 1066.5 400 1422 552"></path><path d="M 0 506 Q 355.5 400 711 400 Q 1066.5 400 1422 506"></path><path d="M 0 460 Q 355.5 400 711 400 Q 1066.5 400 1422 460"></path><path d="M 0 414 Q 355.5 400 711 400 Q 1066.5 400 1422 414"></path><path d="M 0 368 Q 355.5 400 711 400 Q 1066.5 400 1422 368"></path><path d="M 0 322 Q 355.5 400 711 400 Q 1066.5 400 1422 322"></path><path d="M 0 276 Q 355.5 400 711 400 Q 1066.5 400 1422 276"></path><path d="M 0 230 Q 355.5 400 711 400 Q 1066.5 400 1422 230"></path><path d="M 0 184 Q 355.5 400 711 400 Q 1066.5 400 1422 184"></path><path d="M 0 138 Q 355.5 400 711 400 Q 1066.5 400 1422 138"></path><path d="M 0 92 Q 355.5 400 711 400 Q 1066.5 400 1422 92"></path></g></svg>