<svg width="1920" height="1080" viewBox="0 0 1920 1080" xmlns="http://www.w3.org/2000/svg"><path d="M1920,1080C1614.5,1109.5,306.6666666666667,1101.1666666666667,0,1080C-306.6666666666667,1058.8333333333333,52.33333333333333,964.6666666666666,80,953C107.66666666666667,941.3333333333334,137.83333333333334,998.5,166,1010C194.16666666666666,1021.5,221.66666666666666,1011.1666666666666,249,1022C276.3333333333333,1032.8333333333333,302.3333333333333,1067.3333333333333,330,1075C357.6666666666667,1082.6666666666667,387.1666666666667,1069,415,1068C442.8333333333333,1067,469,1074.3333333333333,497,1069C525,1063.6666666666667,554.8333333333334,1049.1666666666667,583,1036C611.1666666666666,1022.8333333333334,638.6666666666666,1015.5,666,990C693.3333333333334,964.5,719.3333333333334,892.1666666666666,747,883C774.6666666666666,873.8333333333334,804.1666666666666,904.3333333333334,832,935C859.8333333333334,965.6666666666666,886.5,1067.3333333333333,914,1067C941.5,1066.6666666666667,969,954,997,933C1025,912,1054.1666666666667,917.3333333333334,1082,941C1109.8333333333333,964.6666666666666,1136.3333333333333,1064.8333333333333,1164,1075C1191.6666666666667,1085.1666666666667,1219.6666666666667,1006.1666666666666,1248,1002C1276.3333333333333,997.8333333333334,1306.1666666666667,1038.3333333333333,1334,1050C1361.8333333333333,1061.6666666666667,1387.3333333333333,1071.1666666666667,1415,1072C1442.6666666666667,1072.8333333333333,1472.1666666666667,1079.6666666666667,1500,1055C1527.8333333333333,1030.3333333333333,1554.1666666666667,925.1666666666666,1582,924C1609.8333333333333,922.8333333333334,1638.6666666666667,1034.6666666666667,1667,1048C1695.3333333333333,1061.3333333333333,1724.3333333333333,1028.1666666666667,1752,1004C1779.6666666666667,979.8333333333334,1805,890.3333333333334,1833,903C1861,915.6666666666666,2225.5,1050.5,1920,1080C1614.5,1109.5,306.6666666666667,1101.1666666666667,0,1080" fill="#ffffff"/></svg>