<svg width="272" height="303" viewBox="0 0 272 303" fill="none" xmlns="http://www.w3.org/2000/svg">
<g clip-path="url(#clip0_1007_13)">
<path d="M243.956 8.47126C243.956 3.79336 240.162 0 235.484 0C230.807 0 227.013 3.79336 227.013 8.47126C227.013 8.47126 226.63 11.4141 229.982 16.1941C231.487 18.3459 235.484 24.7334 235.484 24.7334C235.484 24.7334 239.482 18.3459 240.987 16.1941C244.338 11.4141 243.956 8.47126 243.956 8.47126ZM235.484 14.7992C232.074 14.7992 229.31 12.035 229.31 8.62436C229.31 5.21374 232.074 2.44952 235.484 2.44952C238.895 2.44952 241.659 5.21374 241.659 8.62436C241.659 12.035 238.895 14.7992 235.484 14.7992Z" fill="#0057FE"/>
<path d="M190.797 300.362C190.771 300.832 191.002 301.196 191.328 301.331C191.454 301.384 191.59 301.414 191.727 301.391C193.726 301.128 195.708 300.804 197.672 300.419C198.23 300.304 198.668 299.712 198.66 299.067C198.653 298.422 198.213 297.999 197.656 298.114C195.755 298.499 193.792 298.83 191.838 299.085C191.3 299.155 190.826 299.733 190.797 300.362ZM265.583 129.465C265.475 128.858 265.841 128.182 266.373 127.976C266.914 127.747 267.437 128.072 267.527 128.671C267.91 130.861 268.256 133.037 268.567 135.197C268.657 135.796 268.29 136.472 267.759 136.678C267.529 136.769 267.32 136.762 267.139 136.687C266.868 136.574 266.681 136.309 266.614 135.96C266.294 133.823 265.948 131.647 265.574 129.487L265.583 129.465ZM203.462 296.711C205.412 296.16 207.353 295.525 209.231 294.837C209.781 294.639 210.276 294.979 210.367 295.577C210.447 296.199 210.072 296.845 209.541 297.051C207.607 297.769 205.62 298.411 203.625 298.97C203.433 299.024 203.251 299.001 203.089 298.934C202.799 298.813 202.586 298.51 202.565 298.101C202.53 297.472 202.923 296.834 203.472 296.688L203.462 296.711ZM269.862 154.257C270.402 154.081 270.897 154.474 270.941 155.081C271.14 157.355 271.313 159.592 271.449 161.813C271.484 162.443 271.073 163.073 270.524 163.219C270.332 163.272 270.15 163.25 269.987 163.182C269.698 163.062 269.484 162.759 269.464 162.35C269.318 160.151 269.164 157.922 268.973 155.678C268.911 155.064 269.313 154.403 269.862 154.257ZM220.484 289.582C221.008 289.293 221.578 289.503 221.732 290.102C221.896 290.678 221.62 291.392 221.078 291.674C219.211 292.74 217.291 293.731 215.346 294.631C215.107 294.746 214.852 294.746 214.653 294.663C214.4 294.558 214.222 294.323 214.145 293.998C214.009 293.406 214.357 292.723 214.89 292.464C216.781 291.594 218.655 290.611 220.466 289.575L220.484 289.582ZM262.252 103.009C262.763 105.146 263.247 107.245 263.732 109.344C263.868 109.935 263.537 110.626 263.005 110.885C262.766 111 262.511 111 262.312 110.918C262.077 110.82 261.881 110.577 261.813 110.282C261.346 108.19 260.862 106.091 260.36 103.984C260.224 103.393 260.536 102.695 261.069 102.435C261.601 102.176 262.152 102.432 262.288 103.024L262.252 103.009ZM168.908 298.943C170.798 299.195 172.699 299.372 174.573 299.511C175.119 299.525 175.446 300.115 175.336 300.738C175.216 301.382 174.67 301.877 174.143 301.818C172.241 301.694 170.314 301.479 168.397 301.242C168.342 301.219 168.26 301.212 168.206 301.189C167.808 301.023 167.58 300.501 167.698 299.962C167.836 299.325 168.391 298.861 168.918 298.92L168.908 298.943ZM263.9 115.107C264.423 114.87 264.965 115.149 265.101 115.74C265.539 117.9 265.958 120.053 266.369 122.175C266.478 122.781 266.139 123.442 265.606 123.701C265.377 123.793 265.14 123.801 264.941 123.718C264.688 123.613 264.491 123.371 264.424 123.022C264.031 120.907 263.602 118.778 263.165 116.618C263.047 116.034 263.377 115.343 263.91 115.084L263.9 115.107ZM254.277 77.6115C254.801 77.3219 255.371 77.5327 255.535 78.1086C256.156 80.1847 256.75 82.2229 257.345 84.2612C257.508 84.8371 257.214 85.5431 256.69 85.8326C256.433 85.9926 256.16 85.9857 255.943 85.8953C255.725 85.8049 255.538 85.5931 255.46 85.3203C254.884 83.2896 254.289 81.2514 253.659 79.198C253.495 78.6222 253.771 77.9086 254.295 77.619L254.277 77.6115ZM180.27 299.746C182.219 299.756 184.151 299.705 186.037 299.609C186.584 299.57 186.968 300.077 186.911 300.721C186.855 301.366 186.354 301.906 185.807 301.945C183.893 302.057 181.916 302.115 179.931 302.09C179.821 302.098 179.731 302.06 179.64 302.023C179.26 301.864 179.04 301.425 179.131 300.902C179.233 300.249 179.742 299.74 180.27 299.746ZM258.77 97.7097C258.249 95.6485 257.709 93.5798 257.134 91.496C256.97 90.9201 257.282 90.2217 257.788 89.9246C258.312 89.635 258.863 89.8913 259.036 90.4444C259.603 92.551 260.16 94.6272 260.681 96.6884C260.817 97.2796 260.533 97.9628 259.991 98.2449C259.742 98.382 259.487 98.3827 259.27 98.2923C259.035 98.1943 258.847 97.9825 258.78 97.687L258.77 97.7097ZM259.147 245.018C258.659 244.815 258.478 244.178 258.716 243.556C259.608 241.415 260.419 239.214 261.193 236.997C261.413 236.367 261.993 235.994 262.501 236.152C262.98 236.325 263.234 236.939 263.014 237.569C262.239 239.838 261.382 242.1 260.489 244.294C260.233 244.909 259.644 245.252 259.156 245.048L259.147 245.018ZM252.66 256.16C253.786 254.17 254.868 252.082 255.878 249.963C256.17 249.364 256.776 249.081 257.245 249.33C257.715 249.579 257.858 250.254 257.566 250.854C256.537 253.018 255.409 255.167 254.254 257.225C253.954 257.741 253.422 258.001 252.988 257.82C252.952 257.805 252.897 257.782 252.861 257.767C252.411 257.473 252.322 256.768 252.641 256.206L252.66 256.16ZM263.905 231.659C263.905 231.659 263.814 231.621 263.778 231.606C263.344 231.425 263.135 230.857 263.308 230.288C263.946 228.095 264.557 225.811 265.105 223.527C265.262 222.897 265.816 222.433 266.333 222.515C266.851 222.597 267.16 223.18 267.004 223.81C266.437 226.139 265.834 228.454 265.178 230.692C264.994 231.338 264.423 231.741 263.914 231.636L263.905 231.659ZM267.31 217.977C267.31 217.977 267.147 217.963 267.074 217.933C266.676 217.767 266.475 217.282 266.566 216.759C267.003 214.536 267.397 212.214 267.736 209.923C267.838 209.271 268.347 208.761 268.893 208.775C269.439 208.789 269.795 209.311 269.693 209.963C269.335 212.3 268.932 214.644 268.494 216.92C268.374 217.565 267.828 218.059 267.301 218L267.31 217.977ZM268.843 149.824C268.571 149.711 268.348 149.431 268.318 149.044C268.072 146.884 267.817 144.693 267.535 142.464C267.454 141.843 267.829 141.197 268.379 140.998C268.929 140.8 269.424 141.14 269.505 141.761C269.805 143.998 270.06 146.188 270.287 148.394C270.35 149.008 269.975 149.654 269.425 149.853C269.224 149.929 269.014 149.922 268.833 149.847L268.843 149.824ZM231.106 282.274C231.586 281.886 232.186 281.975 232.46 282.49C232.716 282.997 232.54 283.726 232.05 284.137C230.314 285.552 228.498 286.907 226.683 288.155C226.388 288.353 226.078 288.384 225.825 288.279C225.626 288.196 225.465 288.022 225.368 287.795C225.15 287.249 225.389 286.521 225.887 286.193C227.664 284.983 229.426 283.658 231.097 282.297L231.106 282.274ZM270.664 190.404C270.509 190.419 270.391 190.397 270.265 190.344C269.921 190.201 269.718 189.822 269.734 189.375C269.835 187.145 269.909 184.878 269.957 182.572C269.967 181.935 270.423 181.35 270.971 181.258C271.519 181.165 271.949 181.611 271.938 182.249C271.899 184.584 271.834 186.882 271.724 189.135C271.695 189.764 271.221 190.342 270.683 190.411L270.664 190.404ZM249.037 262.107C249.392 261.56 250.024 261.369 250.427 261.724C250.841 262.057 250.884 262.77 250.529 263.317C249.229 265.314 247.84 267.275 246.434 269.121C246.118 269.524 245.651 269.677 245.289 269.526C245.198 269.489 245.108 269.451 245.037 269.368C244.66 268.997 244.672 268.254 245.054 267.745C246.423 265.936 247.766 264.037 249.037 262.107ZM270.379 194.962C270.926 194.923 271.319 195.407 271.272 196.029C271.078 198.38 270.858 200.694 270.611 202.969C270.536 203.606 270.036 204.146 269.498 204.163C269.388 204.171 269.27 204.148 269.162 204.103C268.8 203.952 268.57 203.536 268.633 203.028C268.889 200.782 269.118 198.499 269.303 196.171C269.359 195.526 269.842 194.979 270.371 194.932L270.379 194.962ZM240.732 273.027C241.168 272.54 241.779 272.501 242.127 272.94C242.474 273.378 242.408 274.099 241.972 274.585C240.422 276.319 238.809 277.999 237.143 279.603C236.829 279.9 236.454 279.984 236.128 279.849C235.984 279.788 235.858 279.683 235.769 279.539C235.458 279.062 235.589 278.341 236.052 277.893C237.653 276.341 239.219 274.722 240.722 273.049L240.732 273.027ZM270.732 167.662C271.281 167.516 271.748 167.925 271.774 168.577C271.854 170.882 271.907 173.149 271.952 175.386C271.96 176.03 271.522 176.623 270.964 176.738C270.8 176.777 270.636 176.762 270.491 176.702C270.184 176.574 269.962 176.24 269.95 175.808C269.924 173.579 269.861 171.334 269.789 169.06C269.754 168.43 270.184 167.807 270.741 167.692L270.732 167.662ZM53.6061 211.313C54.6798 213.016 55.7725 214.674 56.8652 216.332C57.176 216.808 57.0637 217.537 56.6009 217.985C56.2863 218.282 55.8839 218.382 55.5764 218.254C55.4317 218.193 55.3059 218.088 55.2173 217.944C54.1246 216.286 53.0233 214.598 51.9315 212.887C51.6387 212.418 51.7605 211.667 52.2138 211.241C52.6672 210.815 53.2952 210.836 53.588 211.305L53.6061 211.313ZM67.207 230.848C68.4194 232.422 69.6233 233.966 70.8367 235.487C71.1846 235.926 71.1179 236.646 70.6818 237.133C70.3664 237.482 69.9364 237.597 69.5927 237.454C69.4842 237.409 69.367 237.333 69.2869 237.22C68.0555 235.691 66.843 234.117 65.6306 232.543C65.3007 232.112 65.3768 231.369 65.8035 230.905C66.2301 230.441 66.8591 230.409 67.1889 230.84L67.207 230.848ZM60.226 221.259C61.3643 222.909 62.5216 224.514 63.6703 226.088C63.9907 226.542 63.8965 227.278 63.4698 227.741C63.1639 228.068 62.7434 228.161 62.4178 228.025C62.2912 227.972 62.1835 227.874 62.0853 227.753C60.928 226.148 59.7707 224.544 58.6142 222.886C58.2939 222.432 58.4062 221.704 58.8509 221.248C59.2956 220.791 59.9151 220.782 60.226 221.259ZM90.3694 257.038C91.7586 258.392 93.1668 259.7 94.5663 260.978C94.9702 261.333 94.9855 262.061 94.5941 262.593C94.2864 263.026 93.7918 263.194 93.4119 263.036C93.3396 263.006 93.2491 262.968 93.1957 262.892C91.7781 261.607 90.3794 260.276 88.9722 258.915C88.5777 258.537 88.5806 257.816 88.9719 257.285C89.3633 256.753 89.9845 256.637 90.3789 257.015L90.3694 257.038ZM74.55 240.027C75.809 241.54 77.087 243.007 78.3745 244.452C78.7318 244.868 78.7014 245.604 78.2834 246.098C77.9765 246.478 77.519 246.608 77.1753 246.465C77.0668 246.42 76.9677 246.352 76.8781 246.261C75.5907 244.816 74.3041 243.318 73.045 241.805C72.6877 241.389 72.7456 240.638 73.1723 240.174C73.5903 239.68 74.2288 239.625 74.5586 240.057L74.55 240.027ZM82.2645 248.772C83.5976 250.209 84.9316 251.593 86.2657 252.977C86.6325 253.37 86.6297 254.091 86.2383 254.623C85.922 255.026 85.455 255.178 85.0932 255.028C85.0027 254.99 84.9123 254.952 84.8322 254.839C83.4801 253.447 82.128 252.056 80.7948 250.618C80.428 250.225 80.4584 249.489 80.8583 248.988C81.2583 248.486 81.8881 248.401 82.255 248.795L82.2645 248.772ZM47.3473 201.009C48.3745 202.773 49.4025 204.484 50.4306 206.195C50.7233 206.665 50.5835 207.408 50.1301 207.834C49.8156 208.131 49.4502 208.192 49.1427 208.064C48.998 208.004 48.8542 207.89 48.775 207.724C47.7288 206.005 46.6922 204.264 45.665 202.5C45.3817 202.008 45.5397 201.272 45.993 200.846C46.4644 200.428 47.0735 200.494 47.3663 200.964L47.3473 201.009ZM35.8924 179.481C36.7998 181.329 37.7167 183.154 38.6335 184.979C38.8892 185.487 38.7132 186.215 38.2237 186.626C37.9281 186.877 37.5722 186.916 37.3009 186.803C37.1381 186.735 36.9856 186.591 36.8884 186.417C35.9715 184.592 35.0365 182.759 34.1386 180.889C33.8829 180.382 34.0865 179.638 34.5666 179.25C35.0466 178.862 35.6548 178.981 35.9105 179.489L35.8924 179.481ZM29.3524 168.018C29.841 167.66 30.4492 167.78 30.6773 168.303C31.5201 170.204 32.3818 172.059 33.2435 173.915C33.4897 174.445 33.2956 175.166 32.7975 175.546C32.4933 175.767 32.1736 175.821 31.9023 175.708C31.7214 175.633 31.5689 175.489 31.463 175.285C30.6013 173.429 29.731 171.543 28.8882 169.642C28.6601 169.12 28.8637 168.376 29.3524 168.018ZM41.4488 190.401C42.4113 192.218 43.3747 193.983 44.3562 195.755C44.6395 196.247 44.4816 196.983 43.992 197.393C43.687 197.667 43.3216 197.729 43.0322 197.608C42.8694 197.541 42.7256 197.427 42.6283 197.253C41.6468 195.481 40.6747 193.687 39.7122 191.869C39.4384 191.354 39.6145 190.626 40.0945 190.238C40.5745 189.85 41.1836 189.917 41.4393 190.424L41.4488 190.401ZM147.02 293.648C148.795 294.28 150.57 294.859 152.364 295.393C152.909 295.513 153.098 296.18 152.888 296.787C152.668 297.417 152.088 297.79 151.598 297.64C149.804 297.106 147.992 296.512 146.2 295.872L146.164 295.857C145.693 295.661 145.503 295.047 145.714 294.44C145.952 293.818 146.55 293.452 147.029 293.625L147.02 293.648ZM241.423 43.2341C241.205 42.6887 241.463 41.9676 241.969 41.6174C242.466 41.29 243.056 41.4552 243.274 42.0006C244.015 43.993 244.748 45.955 245.462 47.9095C245.653 48.4702 245.423 49.176 244.898 49.5187C244.613 49.6939 244.321 49.7326 244.068 49.6271C243.869 49.5442 243.689 49.3627 243.603 49.1127C242.888 47.1582 242.156 45.1961 241.415 43.2038L241.423 43.2341ZM247.604 53.8792C248.317 55.8868 249.012 57.8869 249.672 59.8719C249.863 60.4325 249.605 61.1536 249.089 61.4735C248.804 61.6487 248.522 61.6646 248.286 61.5667C248.069 61.4763 247.908 61.3023 247.803 61.0447C247.144 59.0597 246.439 57.0825 245.726 55.0749C245.535 54.5142 245.783 53.8159 246.308 53.4733C246.823 53.1534 247.403 53.3414 247.594 53.902L247.604 53.8792ZM98.8657 264.773C100.32 266.02 101.785 267.245 103.24 268.439C103.654 268.771 103.696 269.484 103.341 270.031C103.042 270.494 102.529 270.708 102.131 270.542C102.058 270.512 102.004 270.49 101.941 270.437C100.467 269.235 98.9852 268.003 97.5124 266.748C97.1084 266.393 97.0656 265.68 97.4389 265.141C97.8121 264.601 98.4523 264.44 98.8382 264.788L98.8657 264.773ZM136.635 289.43C137.954 290.033 139.265 290.605 140.568 291.148L141.78 291.653C142.27 291.75 142.467 292.5 142.211 293.115C141.955 293.73 141.366 294.073 140.878 293.869L139.648 293.357C138.327 292.807 136.989 292.25 135.66 291.616C135.172 291.413 135.01 290.731 135.284 290.123C135.54 289.508 136.128 289.219 136.635 289.43ZM157.786 296.849C159.637 297.299 161.47 297.689 163.295 298.048C163.803 298.153 164.112 298.736 163.928 299.381C163.763 300.033 163.2 300.467 162.674 300.355C160.821 300.011 158.952 299.606 157.083 299.149C157.047 299.134 157.011 299.119 156.975 299.104C156.541 298.923 156.332 298.355 156.514 297.763C156.716 297.125 157.288 296.722 157.786 296.849ZM251.685 65.895C252.343 67.9331 253.001 69.9712 253.633 71.9714C253.796 72.5473 253.53 73.2381 253.014 73.5579C252.739 73.7104 252.474 73.7338 252.239 73.6359C252.022 73.5455 251.843 73.364 251.765 73.0912C251.134 71.0909 250.494 69.0604 249.826 67.0451C249.635 66.4845 249.911 65.7709 250.426 65.451C250.941 65.1311 251.512 65.3419 251.703 65.9026L251.685 65.895ZM116.971 278.487C118.557 279.522 120.152 280.534 121.739 281.515C122.199 281.787 122.315 282.477 121.986 283.061C121.695 283.608 121.144 283.86 120.71 283.679C120.674 283.664 120.638 283.649 120.602 283.634C118.987 282.668 117.392 281.656 115.78 280.583C115.329 280.289 115.241 279.584 115.56 279.022C115.888 278.437 116.493 278.208 116.944 278.502L116.971 278.487ZM107.727 271.938C109.247 273.079 110.767 274.219 112.316 275.292C112.739 275.602 112.827 276.307 112.49 276.861C112.19 277.378 111.658 277.584 111.242 277.411C111.188 277.388 111.134 277.365 111.08 277.343C109.54 276.247 107.993 275.122 106.464 273.951C106.041 273.641 105.98 272.921 106.327 272.343C106.664 271.789 107.295 271.598 107.718 271.907L107.727 271.938ZM237.419 29.9138C237.925 29.5636 238.515 29.7289 238.715 30.2667C239.493 32.2211 240.271 34.1754 241.013 36.1147C241.232 36.6601 240.992 37.3887 240.467 37.7313C240.173 37.9293 239.862 37.9605 239.609 37.855C239.41 37.7721 239.249 37.5981 239.153 37.3709C238.411 35.4316 237.641 33.5076 236.863 31.5533C236.645 31.0079 236.884 30.2792 237.382 29.9518L237.419 29.9138ZM126.628 284.353C128.279 285.281 129.931 286.157 131.602 286.986C132.072 287.235 132.215 287.91 131.951 288.494C131.668 289.071 131.098 289.369 130.646 289.18L130.592 289.158C128.93 288.305 127.242 287.415 125.573 286.479C125.103 286.23 124.987 285.541 125.279 284.941C125.572 284.341 126.177 284.112 126.656 284.338L126.628 284.353Z" fill="#0057FE"/>
<path d="M13.4881 129.969C10.9156 124.624 6.8385 118.539 5.69802 119.12C4.55753 119.702 6.76061 126.706 9.35551 132.055C9.60048 132.539 9.82304 133.018 10.0506 133.474C9.73913 134.24 9.10086 135.84 8.29417 137.879C8.29923 137.856 8.30935 137.811 8.31441 137.788L7.62432 136.346C7.54772 136.162 7.30128 136.107 7.10903 136.232L5.73148 136.927C5.52189 137.023 5.42648 137.241 5.52548 137.43L6.21557 138.872C6.21557 138.872 6.32975 138.993 6.41431 139.035L7.21568 140.717C6.52465 142.448 5.77578 144.333 5.03198 146.196L4.35923 144.781C4.28264 144.597 4.03619 144.542 3.84394 144.667L2.4664 145.362C2.25681 145.459 2.1614 145.676 2.26039 145.865L2.95049 147.307C2.95049 147.307 3.06467 147.428 3.14922 147.471L3.91591 149.097C2.0387 153.832 0.495422 157.807 0.509866 157.954C0.545977 158.32 1.63497 160.399 1.63497 160.399C1.87487 160.906 2.12274 161.271 2.17261 161.259C2.22754 161.223 2.00281 160.648 1.78025 160.169L7.03785 151.867C7.25825 152.25 7.48661 152.492 7.59141 152.444C7.72367 152.378 7.61313 151.924 7.36816 151.44L7.33348 151.384L8.37791 149.756C8.58097 150.111 8.80933 150.353 8.91413 150.305C9.04639 150.239 8.93585 149.785 8.69088 149.301L9.61027 147.811L10.5223 146.988C10.755 147.422 11.013 147.742 11.1178 147.694C11.2501 147.628 11.1395 147.174 10.8946 146.69L10.8996 146.667L12.674 145.034C12.9067 145.467 13.1647 145.787 13.2745 145.716C13.4068 145.65 13.2963 145.196 13.0513 144.712L14.7006 143.218C16.4696 146.785 17.1922 148.187 18.4835 150.836C19.7698 153.509 21.1912 155.996 22.502 158.03C21.5016 160.623 19.4488 165.725 19.4488 165.725L20.0413 167.288L25.7128 162.514C26.0676 162.927 26.348 163.252 26.5865 163.449C27.1956 164.515 27.6169 165.157 27.7217 165.109C27.8265 165.061 27.6098 164.344 27.1502 163.24C27.1264 162.925 27.0158 162.47 26.8858 161.893L34.1434 160.24L33.3138 158.79C33.3138 158.79 27.7389 157.215 25.2029 156.46C24.4283 154.236 23.4904 151.689 22.4159 149.016C20.8255 145.703 20.1679 144.221 18.7335 141.157L20.8923 140.755C21.1546 141.267 21.4299 141.615 21.5622 141.549C21.667 141.5 21.5911 141.102 21.391 140.628L23.7716 140.179L23.7666 140.202C24.0289 140.714 24.3266 141.066 24.4365 140.995C24.5413 140.947 24.4705 140.526 24.2653 140.075L25.4469 139.837L27.1778 139.983C27.4177 140.49 27.7154 140.843 27.8477 140.777C27.9525 140.728 27.9063 140.408 27.7357 140.012L29.6509 140.176L29.6408 140.221C29.9031 140.733 30.2008 141.086 30.3331 141.02C30.4379 140.971 30.3743 140.623 30.2038 140.227L39.8643 141.09C40.1143 141.551 40.4164 142.095 40.4662 142.082C40.5212 142.047 40.3781 141.633 40.1382 141.127C40.1382 141.127 39.1865 138.958 38.9307 138.734C38.8338 138.641 34.7947 137.456 29.9815 136.05L29.2148 134.424C29.2148 134.424 29.2553 134.242 29.2257 134.164L28.5356 132.722C28.459 132.538 28.2125 132.483 28.0203 132.607L26.6427 133.303C26.4331 133.399 26.3377 133.617 26.4367 133.806L27.1095 135.22C25.208 134.677 23.3066 134.135 21.5172 133.617L20.7158 131.936C20.7158 131.936 20.7563 131.754 20.7267 131.676L20.0366 130.234C19.96 130.05 19.7136 129.995 19.5213 130.119L18.1438 130.814C17.9342 130.911 17.8388 131.128 17.9378 131.317L18.6279 132.759C18.6279 132.759 18.6727 132.769 18.7074 132.825C16.6542 132.225 15.0389 131.769 14.2425 131.544C14.0149 131.088 13.7923 130.609 13.5524 130.102L13.4881 129.969Z" fill="#0057FE"/>
</g>
<defs>
<clipPath id="clip0_1007_13">
<rect width="272" height="303" fill="white"/>
</clipPath>
</defs>
</svg>
